<mxfile host="app.diagrams.net" modified="2023-10-31T00:16:19.644Z" agent="Mozilla/5.0 (Macintosh; Intel Mac OS X 10_15_7) AppleWebKit/537.36 (KHTML, like Gecko) Chrome/116.0.0.0 Safari/537.36" version="22.0.4" etag="EhrqCHIfjK6pNSN4EtMM" type="github">
  <diagram name="PÃ¡gina-1" id="wn9RZ61nbW_0zQGYDGxh">
    <mxGraphModel>
      <root>
        <mxCell id="0" />
        <mxCell id="1" parent="0" />
      </root>
    </mxGraphModel>
  </diagram>
</mxfile>
